<svg xmlns="http://www.w3.org/2000/svg" xmlns:xlink="http://www.w3.org/1999/xlink" viewBox="0 0 1418.73 1501.88"><defs><style>.cls-1{fill:none;}.cls-2{clip-path:url(#clip-path);}.cls-3{fill:#fff;}.cls-4{clip-path:url(#clip-path-2);}.cls-5{font-size:62.43px;font-family:Gotham-Black, Gotham Black;font-weight:800;}</style><clipPath id="clip-path"><circle class="cls-1" cx="709.2" cy="701.55" r="600.24"/></clipPath><clipPath id="clip-path-2"><circle class="cls-1" cx="713.21" cy="703.55" r="362.15"/></clipPath></defs><g id="Layer_2" data-name="Layer 2"><g id="Layer_1-2" data-name="Layer 1"><g class="cls-2"><rect x="12.92" y="93.3" width="1392.57" height="8"/><rect x="12.92" y="113.31" width="1392.57" height="8"/><rect x="12.92" y="133.32" width="1392.57" height="8"/><rect x="12.92" y="153.33" width="1392.57" height="8"/><rect x="12.92" y="173.34" width="1392.57" height="8"/><rect x="12.92" y="193.35" width="1392.57" height="8"/><rect x="12.92" y="213.35" width="1392.57" height="8"/><rect x="12.92" y="233.36" width="1392.57" height="8"/><rect x="12.92" y="253.37" width="1392.57" height="8"/><rect x="12.92" y="273.38" width="1392.57" height="8"/><rect x="12.92" y="293.39" width="1392.57" height="8"/><rect x="12.92" y="313.39" width="1392.57" height="8"/><rect x="12.92" y="333.4" width="1392.57" height="8"/><rect x="12.92" y="353.41" width="1392.57" height="8"/><rect x="12.92" y="373.42" width="1392.57" height="8"/><rect x="12.92" y="393.43" width="1392.57" height="8"/><rect x="12.92" y="413.43" width="1392.57" height="8"/><rect x="12.92" y="433.44" width="1392.57" height="8"/><rect x="12.92" y="453.45" width="1392.57" height="8"/><rect x="12.92" y="473.46" width="1392.57" height="8"/><rect x="12.92" y="493.47" width="1392.57" height="8"/><rect x="12.92" y="513.48" width="1392.57" height="8"/><rect x="12.92" y="533.48" width="1392.57" height="8"/><rect x="12.92" y="553.49" width="1392.57" height="8"/><rect x="12.92" y="573.5" width="1392.57" height="8"/><rect x="12.92" y="593.51" width="1392.57" height="8"/><rect x="12.92" y="613.52" width="1392.57" height="8"/><rect x="12.92" y="633.52" width="1392.57" height="8"/><rect x="12.92" y="653.53" width="1392.57" height="8"/><rect x="12.92" y="673.54" width="1392.57" height="8"/><rect x="12.92" y="693.55" width="1392.57" height="8"/><rect x="12.92" y="713.56" width="1392.57" height="8"/><rect x="12.92" y="733.56" width="1392.57" height="8"/><rect x="12.92" y="753.57" width="1392.57" height="8"/><rect x="12.92" y="773.58" width="1392.57" height="8"/><rect x="12.92" y="793.59" width="1392.57" height="8"/><rect x="12.92" y="793.59" width="1392.57" height="8"/><rect x="12.92" y="813.6" width="1392.57" height="8"/><rect x="12.92" y="833.61" width="1392.57" height="8"/><rect x="12.92" y="853.61" width="1392.57" height="8"/><rect x="12.92" y="873.62" width="1392.57" height="8"/><rect x="12.92" y="893.63" width="1392.57" height="8"/><rect x="12.92" y="913.64" width="1392.57" height="8"/><rect x="12.92" y="933.65" width="1392.57" height="8"/><rect x="12.92" y="953.65" width="1392.57" height="8"/><rect x="12.92" y="973.66" width="1392.57" height="8"/><rect x="12.92" y="993.67" width="1392.57" height="8"/><rect x="12.92" y="1013.68" width="1392.57" height="8"/><rect x="12.92" y="1033.69" width="1392.57" height="8"/><rect x="12.92" y="1053.7" width="1392.57" height="8"/><rect x="12.92" y="1073.7" width="1392.57" height="8"/><rect x="12.92" y="1093.71" width="1392.57" height="8"/><rect x="12.92" y="1113.72" width="1392.57" height="8"/><rect x="12.92" y="1133.73" width="1392.57" height="8"/><rect x="12.92" y="1153.74" width="1392.57" height="8"/><rect x="12.92" y="1173.74" width="1392.57" height="8"/><rect x="12.92" y="1193.75" width="1392.57" height="8"/><rect x="12.92" y="1213.76" width="1392.57" height="8"/><rect x="12.92" y="1233.77" width="1392.57" height="8"/><rect x="12.92" y="1253.78" width="1392.57" height="8"/><rect x="12.92" y="1273.78" width="1392.57" height="8"/><rect x="12.92" y="1293.79" width="1392.57" height="8"/><rect x="12.92" y="1313.8" width="1392.57" height="8"/><rect x="12.92" y="1333.81" width="1392.57" height="8"/><rect x="12.92" y="1353.82" width="1392.57" height="8"/><rect x="12.92" y="1373.83" width="1392.57" height="8"/><rect x="12.92" y="1393.83" width="1392.57" height="8"/><rect x="12.92" y="1413.84" width="1392.57" height="8"/><rect x="12.92" y="1433.85" width="1392.57" height="8"/><rect x="12.92" y="1453.86" width="1392.57" height="8"/><rect x="12.92" y="1473.87" width="1392.57" height="8"/><rect x="12.92" y="1493.87" width="1392.57" height="8"/></g><circle class="cls-3" cx="709.2" cy="701.55" r="572.23"/><g class="cls-4"><rect x="293.04" y="353.41" width="832.34" height="8"/><rect x="293.04" y="373.42" width="832.34" height="8"/><rect x="293.04" y="393.43" width="832.34" height="8"/><rect x="293.04" y="413.43" width="832.34" height="8"/><rect x="293.04" y="433.44" width="832.34" height="8"/><rect x="293.04" y="453.45" width="832.34" height="8"/><rect x="293.04" y="473.46" width="832.34" height="8"/><rect x="293.04" y="493.47" width="832.34" height="8"/><rect x="293.04" y="513.48" width="832.34" height="8"/><rect x="293.04" y="533.48" width="832.34" height="8"/><rect x="293.04" y="553.49" width="832.34" height="8"/><rect x="293.04" y="573.5" width="832.34" height="8"/><rect x="293.04" y="593.51" width="832.34" height="8"/><rect x="293.04" y="613.52" width="832.34" height="8"/><rect x="293.04" y="633.52" width="832.34" height="8"/><rect x="293.04" y="653.53" width="832.34" height="8"/><rect x="293.04" y="673.54" width="832.34" height="8"/><rect x="293.04" y="693.55" width="832.34" height="8"/><rect x="293.04" y="713.56" width="832.34" height="8"/><rect x="293.04" y="733.56" width="832.34" height="8"/><rect x="293.04" y="753.57" width="832.34" height="8"/><rect x="293.04" y="773.58" width="832.34" height="8"/><rect x="293.04" y="793.59" width="832.34" height="8"/><rect x="293.04" y="813.6" width="832.34" height="8"/><rect x="293.04" y="833.61" width="832.34" height="8"/><rect x="293.04" y="853.61" width="832.34" height="8"/><rect x="293.04" y="873.62" width="832.34" height="8"/><rect x="293.04" y="893.63" width="832.34" height="8"/><rect x="293.04" y="913.64" width="832.34" height="8"/><rect x="293.04" y="933.65" width="832.34" height="8"/><rect x="293.04" y="953.65" width="832.34" height="8"/><rect x="293.04" y="973.66" width="832.34" height="8"/><rect x="293.04" y="993.67" width="832.34" height="8"/><rect x="293.04" y="1013.68" width="832.34" height="8"/><rect x="293.04" y="1033.69" width="832.34" height="8"/><rect x="293.04" y="1053.7" width="832.34" height="8"/></g><path d="M1117.09,532.21l-55,87.17A361.11,361.11,0,0,1,1073,707.55c0,199.49-162.3,361.79-361.78,361.79a363,363,0,0,1-59.45-4.94V856h193.5l74.56-125.88H651.76V603.83h353.57l80-133.08h-.9C1005.92,347.39,868,265.37,711.21,265.37,467.39,265.37,269,463.74,269,707.55c0,145.79,70.92,275.3,180.07,355.89V956.68a360.52,360.52,0,0,1-99.68-249.13c0-199.48,162.3-361.78,361.79-361.78,109,0,206.82,48.49,273.2,125H507.06v756.36l141-81.91a443.83,443.83,0,0,0,63.11,4.53c243.81,0,442.18-198.36,442.18-442.18A439.61,439.61,0,0,0,1117.09,532.21Z"/><path class="cls-3" d="M711.21,265.37c156.76,0,294.71,82,373.25,205.38h.9l-80,133.08H651.76V730.09H919.82L845.26,856H651.76V1064.4a363,363,0,0,0,59.45,4.94C910.69,1069.34,1073,907,1073,707.55a361.11,361.11,0,0,0-10.89-88.17l55-87.17a439.61,439.61,0,0,1,36.3,175.34c0,243.82-198.37,442.18-442.18,442.18a443.83,443.83,0,0,1-63.11-4.53l-141,81.91V470.75H984.41c-66.38-76.49-164.21-125-273.2-125-199.49,0-361.79,162.3-361.79,361.78A360.52,360.52,0,0,0,449.1,956.68v106.76C340,982.85,269,853.34,269,707.55c0-243.81,198.36-442.18,442.18-442.18m0-20C456.35,245.37,249,452.7,249,707.55a462.48,462.48,0,0,0,51.34,211.58,467.5,467.5,0,0,0,136.85,160.41l31.9,23.55V948.68l-5.51-5.79a340.16,340.16,0,0,1-94.17-235.34c0-188.45,153.32-341.77,341.78-341.77a341.33,341.33,0,0,1,225.16,85H487.06v811.13l30.05-17.46L652.22,1166a464.32,464.32,0,0,0,59,3.79c254.85,0,462.18-207.33,462.18-462.19a457.94,457.94,0,0,0-37.94-183.3l-15.07-34.75-20.21,32-55,87.17-4.57,7.25,2.09,8.31A342.09,342.09,0,0,1,1053,707.55c0,188.46-153.32,341.78-341.77,341.78a340,340,0,0,1-39.44-2.31V876H856.66l5.81-9.82L937,740.29l17.89-30.21H671.77V623.84h344.87l5.83-9.7,80-133.08,18.24-30.32h-25.46A466.73,466.73,0,0,0,937,304.36a461.64,461.64,0,0,0-225.76-59Z"/><text class="cls-5" transform="translate(486.56 1154.81) rotate(-151.18)">F</text><text class="cls-5" transform="translate(446.57 1132.84) rotate(-145.24)">O</text><text class="cls-5" transform="matrix(-0.76, -0.65, 0.65, -0.76, 400.03, 1099.8)">L</text><text class="cls-5" transform="matrix(-0.7, -0.72, 0.72, -0.7, 366.94, 1071.12)">L</text><text class="cls-5" transform="translate(338.01 1041.77) rotate(-128.79)">O</text><text class="cls-5" transform="translate(303.62 999.63) rotate(-121.52)">W</text><text class="cls-5" transform="translate(265.34 935.6) rotate(-113.87)">M</text><text class="cls-5" transform="translate(241.87 881.09) rotate(-107.8)">E</text><text class="cls-5" transform="translate(228.06 836.03) rotate(-103.78)"> </text><text class="cls-5" transform="translate(222.4 813.93) rotate(-99.79)">T</text><text class="cls-5" transform="translate(214.73 770.02) rotate(-94.02)">O</text><text class="cls-5" transform="translate(211.17 713.12) rotate(-87.78)">K</text><text class="cls-5" transform="matrix(0.14, -0.99, 0.99, 0.14, 213.5, 662.4)">E</text><text class="cls-5" transform="matrix(0.24, -0.97, 0.97, 0.24, 220, 616.01)">N</text><text class="cls-5" transform="translate(233.5 563.42) rotate(-71.09)">•</text><text class="cls-5" transform="translate(245.79 528.69) rotate(-67.71)"> </text><text class="cls-5" transform="matrix(0.44, -0.9, 0.9, 0.44, 254.25, 507.49)">F</text><text class="cls-5" transform="translate(274.39 466.51) rotate(-57.87)">O</text><text class="cls-5" transform="matrix(0.62, -0.79, 0.79, 0.62, 305.24, 418.51)">L</text><text class="cls-5" transform="translate(332.36 384.14) rotate(-46.95)">L</text><text class="cls-5" transform="translate(360.36 353.89) rotate(-41.41)">O</text><text class="cls-5" transform="matrix(0.83, -0.56, 0.56, 0.83, 400.89, 317.61)">W</text><text class="cls-5" transform="matrix(0.9, -0.45, 0.45, 0.9, 463.11, 276.45)">M</text><text class="cls-5" transform="matrix(0.94, -0.35, 0.35, 0.94, 516.5, 250.54)">E</text><text class="cls-5" transform="translate(560.88 234.7) rotate(-16.39)"> </text><text class="cls-5" transform="matrix(0.98, -0.21, 0.21, 0.98, 582.71, 228.04)">T</text><text class="cls-5" transform="translate(626.21 218.37) rotate(-6.65)">O</text><text class="cls-5" transform="matrix(1, -0.01, 0.01, 1, 682.87, 212.22)">K</text><text class="cls-5" transform="translate(733.67 212.2) rotate(5.25)">E</text><text class="cls-5" transform="translate(780.32 216.56) rotate(11.1)">N</text><text class="cls-5" transform="translate(833.54 227.85) rotate(15.54)"> </text><text class="cls-5" transform="translate(855.65 233.95) rotate(18.95)">•</text><text class="cls-5" transform="translate(890.37 246.26) rotate(22.32)"> </text><text class="cls-5" transform="matrix(0.9, 0.44, -0.44, 0.9, 911.56, 254.74)">F</text><text class="cls-5" transform="matrix(0.85, 0.53, -0.53, 0.85, 952.52, 274.91)">O</text><text class="cls-5" transform="translate(1000.47 305.78) rotate(38)">L</text><text class="cls-5" transform="matrix(0.73, 0.68, -0.68, 0.73, 1034.84, 332.93)">L</text><text class="cls-5" transform="matrix(0.66, 0.75, -0.75, 0.66, 1065.08, 360.95)">O</text><text class="cls-5" transform="translate(1101.33 401.5) rotate(55.91)">W</text><text class="cls-5" transform="translate(1142.44 463.75) rotate(63.56)">M</text><text class="cls-5" transform="translate(1168.32 517.16) rotate(69.64)">E</text><text class="cls-5" transform="translate(1184.13 561.55) rotate(73.65)"> </text><text class="cls-5" transform="translate(1190.78 583.38) rotate(77.64)">T</text><text class="cls-5" transform="matrix(0.12, 0.99, -0.99, 0.12, 1200.42, 626.89)">O</text><text class="cls-5" transform="matrix(0.01, 1, -1, 0.01, 1206.53, 683.55)">K</text><text class="cls-5" transform="translate(1206.52 734.36) rotate(95.29)">E</text><text class="cls-5" transform="translate(1202.12 780.99) rotate(101.14)">N</text><text class="cls-5" transform="matrix(-0.27, 0.96, -0.96, -0.27, 1190.8, 834.23)"> </text><text class="cls-5" transform="translate(1184.68 856.31) rotate(108.98)">•</text><text class="cls-5" transform="translate(1172.35 891.02) rotate(112.36)"> </text><text class="cls-5" transform="translate(1163.86 912.21) rotate(116.28)">F</text><text class="cls-5" transform="matrix(-0.53, 0.85, -0.85, -0.53, 1143.67, 953.15)">O</text><text class="cls-5" transform="translate(1112.76 1001.1) rotate(128.04)">L</text><text class="cls-5" transform="translate(1085.59 1035.44) rotate(133.12)">L</text><text class="cls-5" transform="matrix(-0.75, 0.66, -0.66, -0.75, 1057.55, 1065.66)">O</text><text class="cls-5" transform="translate(1016.98 1101.88) rotate(145.94)">W</text><text class="cls-5" transform="translate(954.7 1142.95) rotate(153.6)">M</text><text class="cls-5" transform="translate(901.28 1168.8) rotate(159.68)">E</text><text class="cls-5" transform="translate(856.86 1184.59) rotate(163.68)"> </text><text class="cls-5" transform="translate(835.02 1191.22) rotate(167.68)">T</text><text class="cls-5" transform="translate(791.52 1200.82) rotate(173.42)">O</text><text class="cls-5" transform="matrix(-1, 0.01, -0.01, -1, 734.86, 1206.9)">K</text><text class="cls-5" transform="translate(684.04 1206.85) rotate(-174.68)">E</text><text class="cls-5" transform="matrix(-0.98, -0.19, 0.19, -0.98, 637.42, 1202.43)">N</text><text class="cls-5" transform="translate(584.2 1191.07) rotate(-164.39)"> </text><path d="M709.2,1279.79c-317.73,0-576.23-258.5-576.23-576.24S391.47,127.32,709.2,127.32s576.24,258.5,576.24,576.23S1026.94,1279.79,709.2,1279.79Zm0-1144.47C395.88,135.32,141,390.23,141,703.55s254.91,568.23,568.23,568.23,568.24-254.9,568.24-568.23S1022.53,135.32,709.2,135.32Z"/><path d="M709.2,1317.8C370.5,1317.8,95,1042.25,95,703.55S370.5,89.3,709.2,89.3s614.25,275.55,614.25,614.25S1047.9,1317.8,709.2,1317.8Zm0-1208.49C381.54,109.31,115,375.89,115,703.55s266.58,594.24,594.24,594.24,594.25-266.57,594.25-594.24S1036.87,109.31,709.2,109.31Z"/><path d="M709.2,1169.74C452.15,1169.74,243,960.61,243,703.55S452.15,237.36,709.2,237.36s466.19,209.13,466.19,466.19S966.26,1169.74,709.2,1169.74Zm0-924.37C456.56,245.37,251,450.91,251,703.55s205.54,458.19,458.18,458.19,458.19-205.54,458.19-458.19S961.85,245.37,709.2,245.37Z"/></g></g></svg>